<svg viewBox="0 0 54.0003 54" x="0" y="0" fill="none" xmlns="http://www.w3.org/2000/svg"><g id="Frame 33_2" data-node-id="29:2397" xmlns="http://www.w3.org/2000/svg"><path id="Ellipse 2_2" data-node-id="29:2398" d="M53.5003,27c0,14.6355 -11.864,26.5 -26.5,26.5c-14.636,0 -26.5,-11.8645 -26.5,-26.5c0,-14.6355 11.864,-26.5 26.5,-26.5c14.636,0 26.5,11.8645 26.5,26.5zM10.0403,27c0,9.3667 7.593,16.96 16.96,16.96c9.367,0 16.96,-7.5933 16.96,-16.96c0,-9.3667 -7.593,-16.96 -16.96,-16.96c-9.367,0 -16.96,7.5933 -16.96,16.96z" fill="#D6ECFD"/><path id="Ellipse 4_2" data-node-id="29:2399" d="M27.0003,5.27c0,-2.6344 2.153,-4.8135 4.744,-4.3419c4.235,0.7707 8.244,2.5665 11.662,5.261c4.675,3.6851 7.972,8.8367 9.362,14.6246c1.389,5.7879 0.79,11.8752 -1.702,17.2808c-2.492,5.4056 -6.732,9.8148 -12.035,12.5172c-5.304,2.7023 -11.363,3.5404 -17.201,2.3791c-5.838,-1.1612 -11.115,-4.2542 -14.981,-8.7804c-3.866,-4.5263 -6.095,-10.2222 -6.329,-16.17c-0.17,-4.349 0.733,-8.6475 2.599,-12.5267c1.142,-2.3741 4.17,-2.8347 6.301,-1.2863c2.131,1.5485 2.527,4.5265 1.631,7.0039c-0.74,2.0464 -1.085,4.2303 -0.998,6.4345c0.15,3.8066 1.576,7.452 4.051,10.3488c2.474,2.8968 5.851,4.8763 9.587,5.6195c3.737,0.7432 7.614,0.2069 11.009,-1.5226c3.394,-1.7295 6.107,-4.5514 7.702,-8.011c1.595,-3.4596 1.979,-7.3555 1.089,-11.0597c-0.889,-3.7043 -2.999,-7.0013 -5.991,-9.3598c-1.733,-1.3656 -3.702,-2.3706 -5.793,-2.9746c-2.53,-0.7312 -4.707,-2.802 -4.707,-5.4364z" fill="#0791F8"/><path id="Ellipse 6_2" data-node-id="29:2400" d="M27.0003,5.27c0,-2.6344 2.153,-4.8135 4.744,-4.3419c3.305,0.6015 6.481,1.8286 9.35,3.6306c4.223,2.652 7.611,6.4414 9.777,10.933c2.165,4.4915 3.019,9.5028 2.464,14.4581c-0.377,3.3672 -1.394,6.6157 -2.982,9.5761c-1.245,2.3215 -4.291,2.6484 -6.352,1.0077c-2.061,-1.6407 -2.326,-4.6333 -1.321,-7.0688c0.6,-1.4562 0.998,-2.9961 1.175,-4.5769c0.355,-3.1714 -0.192,-6.3787 -1.578,-9.2532c-1.386,-2.8746 -3.554,-5.2999 -6.257,-6.9971c-1.347,-0.846 -2.799,-1.494 -4.313,-1.9312c-2.53,-0.7312 -4.707,-2.802 -4.707,-5.4364z" fill="#0A7BCC"/><path id="Ellipse 3_2" data-node-id="29:2401" d="M27.0003,5.27c0,-2.6344 2.152,-4.8135 4.744,-4.3419c1.973,0.359 3.903,0.9415 5.753,1.7397c3.315,1.4302 6.303,3.5226 8.78,6.1488c2.478,2.6263 4.392,5.7311 5.626,9.1238c0.689,1.8937 1.158,3.8548 1.401,5.8448c0.32,2.615 -1.981,4.6366 -4.611,4.4829c-2.63,-0.1537 -4.57,-2.4474 -5.152,-5.0166c-0.158,-0.6937 -0.359,-1.3783 -0.603,-2.0496c-0.79,-2.1714 -2.015,-4.1584 -3.601,-5.8392c-1.585,-1.6809 -3.497,-3.02 -5.619,-3.9353c-0.656,-0.283 -1.327,-0.5236 -2.011,-0.721c-2.53,-0.7312 -4.707,-2.802 -4.707,-5.4364z" fill="#0762A3"/><path id="Ellipse 1_2" data-node-id="29:2402" d="M27.0003,5.27c0,-2.6344 2.153,-4.8135 4.744,-4.3419c3.088,0.562 6.064,1.6703 8.785,3.2855c2.72,1.6151 5.118,3.6975 7.09,6.1395c1.655,2.0497 0.772,4.9827 -1.541,6.2439c-2.313,1.2612 -5.173,0.3417 -7.027,-1.5303c-1.009,-1.0193 -2.148,-1.9111 -3.393,-2.65c-1.244,-0.739 -2.572,-1.3121 -3.951,-1.7103c-2.53,-0.7312 -4.707,-2.802 -4.707,-5.4364z" fill="#054A7A"/><path id="Ellipse 5_2" data-node-id="29:2403" d="M27.0003,5.27c0,-2.6344 2.153,-4.8135 4.744,-4.3419c2.295,0.4176 4.525,1.1364 6.631,2.1376c2.38,1.1309 2.854,4.1569 1.316,6.2953c-1.539,2.1384 -4.515,2.5482 -6.996,1.6637c-0.326,-0.1162 -0.655,-0.2223 -0.988,-0.3183c-2.53,-0.7312 -4.707,-2.802 -4.707,-5.4364z" fill="#013D6A"/></g></svg>